[center][img]http://www.shotpix.com/images/63356729820639633787.jpg[/img]


[img]http://www.shotpix.com/images/51932040036604500224.jpg[/img]

IMDB Link: [url]http://www.imdb.com/title/tt2440140/[/url]
IMDB Rating: 5.0/10.0
GENRE: Drama


[img]http://www.shotpix.com/images/19842441914057550137.jpg[/img]

Complete name                            : Ajj De Ranjhe
Format                                   : Matroska
Format version                           : Version 4 / Version 2
File size                                : 723 MiB
Duration                                 : 2h 24mn
Overall bit rate                         : 701 Kbps
Movie name                               : Ajj De Ranjhe (2012) 720p DVDRip X264 (Non-Hindi) [Punjabi] {R@J@T}
Encoded date                             : UTC 2013-05-02 04:30:55
Writing application                      : mkvmerge v6.1.0 ('Old Devil') built on Mar  2 2013 14:32:37
Writing library                          : libebml v1.3.0 + libmatroska v1.4.0


[img]http://www.shotpix.com/images/56321098596403620846.jpg[/img]

ID                                       : 1
Format                                   : MPEG-4 Visual
Format profile                           : Advanced Simple@L5
Format settings, BVOP                    : Yes
Format settings, QPel                    : No
Format settings, GMC                     : No warppoints
Format settings, Matrix                  : Default (MPEG)
Codec ID                                 : V_MS/VFW/FOURCC / XVID
Codec ID/Hint                            : XviD
Duration                                 : 2h 24mn
Bit rate                                 : 559 Kbps
Width                                    : 672 pixels
Height                                   : 288 pixels
Display aspect ratio                     : 2.35:1
Frame rate mode                          : Constant
Frame rate                               : 29.970 fps
Color space                              : YUV
Chroma subsampling                       : 4:2:0
Bit depth                                : 8 bits
Scan type                                : Progressive
Compression mode                         : Lossy
Bits/(Pixel*Frame)                       : 0.096
Stream size                              : 576 MiB (80%)
Title                                    : R@J@T
Writing library                          : XviD 1.2.1 (UTC 2008-12-04)
Language                                 : English
Default                                  : Yes
Forced                                   : No


[img]http://www.shotpix.com/images/93770804060181909706.jpg[/img]

ID                                       : 2
Format                                   : AC-3
Format/Info                              : Audio Coding 3
Mode extension                           : CM (complete main)
Format settings, Endianness              : Big
Codec ID                                 : A_AC3
Duration                                 : 2h 24mn
Bit rate mode                            : Constant
Bit rate                                 : 128 Kbps
Channel(s)                               : 6 channels
Channel positions                        : Front: L C R, Side: L R, LFE
Sampling rate                            : 48.0 KHz
Bit depth                                : 16 bits
Compression mode                         : Lossy
Stream size                              : 132 MiB (18%)
Title                                    : R@J@T - [Punjbai]
Default                                  : Yes
Forced                                   : No


[img]http://www.shotpix.com/images/19178588247265563614.png[/img]

[img]http://www.shotpix.com/images/10411739183730906912.png[/img]
[img]http://www.shotpix.com/images/03898679508019269459.png[/img]
[img]http://www.shotpix.com/images/10774363267045547000.png[/img]
[img]http://www.shotpix.com/images/04945128143663063682.png[/img]
[img]http://www.shotpix.com/images/31417806547175758377.png[/img]
[img]http://www.shotpix.com/images/71787070187077544917.png[/img]
[img]http://www.shotpix.com/images/60727564120459435956.png[/img]
[img]http://www.shotpix.com/images/91678667173032687498.png[/img]


SPECIAL NOTE: CHECK SCREEN SHOTS AND SAMPLE BEFORE DOWNLOAD FOR SATISFACTION

SPECIAL THANKS: K@rtik


[img]http://www.shotpix.com/images/79493232037148808289.gif[/img]

IF YOU LIKE MY WORK PLEASE SEED THE TORRENT


[img]http://www.shotpix.com/images/68649387423808507639.jpg[/img]

R@J@T[/center]

